<svg xmlns="http://www.w3.org/2000/svg" width="640" height="640" viewBox="0 0 640 640" role="img" aria-labelledby="title desc">
  <title id="title">Sales QR placeholder</title>
  <desc id="desc">Replace this placeholder with the real sales QR code image.</desc>
  <rect width="640" height="640" fill="#ffffff"/>
  <rect x="52" y="52" width="536" height="536" rx="24" fill="#f8fafc" stroke="#111827" stroke-width="8"/>
  <rect x="108" y="108" width="120" height="120" fill="#111827"/>
  <rect x="132" y="132" width="72" height="72" fill="#ffffff"/>
  <rect x="412" y="108" width="120" height="120" fill="#111827"/>
  <rect x="436" y="132" width="72" height="72" fill="#ffffff"/>
  <rect x="108" y="412" width="120" height="120" fill="#111827"/>
  <rect x="132" y="436" width="72" height="72" fill="#ffffff"/>
  <g fill="#111827">
    <rect x="280" y="118" width="24" height="24"/>
    <rect x="316" y="118" width="24" height="24"/>
    <rect x="352" y="118" width="24" height="24"/>
    <rect x="268" y="154" width="24" height="24"/>
    <rect x="304" y="154" width="24" height="24"/>
    <rect x="340" y="154" width="24" height="24"/>
    <rect x="280" y="190" width="24" height="24"/>
    <rect x="328" y="190" width="24" height="24"/>
    <rect x="364" y="190" width="24" height="24"/>
    <rect x="256" y="250" width="24" height="24"/>
    <rect x="292" y="250" width="24" height="24"/>
    <rect x="328" y="250" width="24" height="24"/>
    <rect x="376" y="250" width="24" height="24"/>
    <rect x="412" y="250" width="24" height="24"/>
    <rect x="172" y="274" width="24" height="24"/>
    <rect x="208" y="274" width="24" height="24"/>
    <rect x="280" y="286" width="24" height="24"/>
    <rect x="328" y="286" width="24" height="24"/>
    <rect x="388" y="286" width="24" height="24"/>
    <rect x="424" y="286" width="24" height="24"/>
    <rect x="160" y="322" width="24" height="24"/>
    <rect x="220" y="322" width="24" height="24"/>
    <rect x="268" y="322" width="24" height="24"/>
    <rect x="304" y="322" width="24" height="24"/>
    <rect x="352" y="322" width="24" height="24"/>
    <rect x="388" y="322" width="24" height="24"/>
    <rect x="436" y="322" width="24" height="24"/>
    <rect x="184" y="358" width="24" height="24"/>
    <rect x="244" y="358" width="24" height="24"/>
    <rect x="292" y="358" width="24" height="24"/>
    <rect x="340" y="358" width="24" height="24"/>
    <rect x="388" y="358" width="24" height="24"/>
    <rect x="424" y="358" width="24" height="24"/>
    <rect x="256" y="394" width="24" height="24"/>
    <rect x="304" y="394" width="24" height="24"/>
    <rect x="364" y="394" width="24" height="24"/>
    <rect x="400" y="394" width="24" height="24"/>
    <rect x="448" y="394" width="24" height="24"/>
    <rect x="268" y="442" width="24" height="24"/>
    <rect x="316" y="442" width="24" height="24"/>
    <rect x="352" y="442" width="24" height="24"/>
    <rect x="400" y="442" width="24" height="24"/>
  </g>
  <text x="320" y="590" text-anchor="middle" font-family="Arial, sans-serif" font-size="28" fill="#111827">Replace with your real sales QR image</text>
</svg>
